<svg width="45px" height="40px" viewBox="656 63 45 40" version="1.1" 
    xmlns="http://www.w3.org/2000/svg" 
    xmlns:xlink="http://www.w3.org/1999/xlink">
    <!-- Generator: Sketch 41.2 (35397) - http://www.bohemiancoding.com/sketch -->
    <desc>Created with Sketch.</desc>
    <defs></defs>
    <g id="分享" stroke="none" stroke-width="1" fill="none" fill-rule="evenodd" transform="translate(656.000000, 63.000000)">
        <g id="Group" fill="#9B9B9B">
            <path d="M35.3177258,30.54 C35.3177258,31.8328 34.500602,33.6 33.2026756,33.6 L9.69230769,33.6 C8.39438127,33.6 7.22408027,31.8328 7.22408027,30.54 L7.22408027,16.48 C7.22408027,15.1848 8.39438127,14.4 9.69311037,14.4 L12.0874916,14.4 L17.4967224,7.2 L2.64,7.2 C1.3412709,7.2 0,8.156 0,9.4504 L0,37.5696 C0,38.8624 1.3412709,40 2.64,40 L40.2549833,40 C41.5545151,40 42.541806,38.8624 42.541806,37.5696 L42.541806,20.5168 L35.3177258,26.6584 L35.3177258,30.54 Z" id="Shape"></path>
            <path d="M15.6144482,26.236 C15.6505686,26.4344 15.7083612,26.624 15.750903,26.8208 C17.8097659,20.876 22.3336455,16.452 27.9355184,15.4224 C28.9854181,15.2304 31.3043478,15.176 31.3043478,15.228 L31.3043478,23.2 L33.2026756,23.2 L44.9586622,11.0144 L33.2026756,0 L31.3043478,0 L31.3043478,6.7784 C31.3043478,6.788 29.3450167,6.8512 28.4701003,7.012 C19.8228763,8.6016 13.9432776,17.2072 15.6144482,26.236 Z" id="Shape"></path>
        </g>
    </g>
</svg>