<?xml version="1.0" encoding="UTF-8" standalone="no"?>
<svg width="60px" height="60px" viewBox="0 0 60 60" version="1.1" xmlns="http://www.w3.org/2000/svg" xmlns:xlink="http://www.w3.org/1999/xlink">
    <!-- Generator: Sketch 39.1 (31720) - http://www.bohemiancoding.com/sketch -->
    <title>pdf</title>
    <desc>Created with Sketch.</desc>
    <defs></defs>
    <g id="Apollo_0912" stroke="none" stroke-width="1" fill="none" fill-rule="evenodd">
        <g id="投资组合报告书" transform="translate(-63.000000, -377.000000)">
            <g id="pdf" transform="translate(63.000000, 377.000000)">
                <path d="M53.3333333,0 L6.66666667,0 C3,0 0,3 0,6.66666667 L0,53.3333333 C0,57 3,60 6.66666667,60 L53.3333333,60 C57,60 60,57 60,53.3333333 L60,6.66666667 C60,3 57,0 53.3333333,0 L53.3333333,0 L53.3333333,0 Z" id="Shape" fill="#00A1FF"></path>
                <path d="M28.7679557,27.1333333 C28.0012891,29.6 26.9012891,32.2333333 25.4012891,35.1333333 C24.7346224,36.4 24.0012891,37.6 23.7346224,38.6 L24.1012891,38.4666667 L24.1012891,38.4666667 C28.3346224,36.8333333 32.3346224,35.9 35.2346223,35.3666667 C34.7346223,35.0333333 34.2679557,34.6666667 33.8679557,34.3 C31.8679557,32.6 30.1346224,30.1333333 28.7679557,27.1333333 L28.7679557,27.1333333 L28.7679557,27.1333333 Z M50.3679557,39.8333333 C49.801289,40.4666667 48.801289,40.8333333 47.3346223,40.8333333 C44.801289,40.8333333 40.6679557,40.0666667 37.3346223,38.3666667 C31.6012891,39 27.3346224,39.7666667 23.9012891,40.8666667 C23.7346224,40.9333333 23.5346224,41 23.3012891,41.1 C19.1679557,48.1666667 16.1012891,51.3333333 13.4012891,51.3333333 C12.8679557,51.3333333 12.3346224,51.2 11.9346224,50.9666667 L10.3346224,49.9333333 L10.2346224,49.7666667 C10.0012891,49.1666667 9.9346224,48.6 10.0679557,47.9666667 C10.4346224,46.2 12.3346224,43.4 16.3346224,40.9 C16.9679557,40.4333333 17.9679557,39.9 19.3012891,39.2666667 C20.3012891,37.5333333 21.3679557,35.5 22.5012891,33.2666667 C24.2012891,29.8333333 25.2679557,26.4333333 26.1012891,23.5 L26.1012891,23.4666667 C24.8679557,19.4333333 24.1346224,17 25.3679557,12.5666667 C25.6679557,11.3 26.7679557,10 28.0012891,10 L28.8012891,10 C29.5679557,10 30.3012891,10.2666667 30.8346224,10.8 C33.0346224,13 32.0012891,18.3666667 30.9012891,22.8 C30.8346224,23 30.8012891,23.1666667 30.7679557,23.2666667 C32.1012891,27.0333333 34.001289,30.0666667 36.101289,31.8 C36.9679557,32.4666667 37.9346223,33.1333333 39.001289,33.7333333 C40.501289,33.5666667 41.9346223,33.5 43.301289,33.5 C47.4346223,33.5 49.9346223,34.2333333 50.901289,35.8 C51.2346223,36.3333333 51.401289,36.9666667 51.301289,37.6333333 C51.2679557,38.4666667 50.9679557,39.2333333 50.3679557,39.8333333 L50.3679557,39.8333333 L50.3679557,39.8333333 Z M49.001289,37.4666667 C48.6679557,37.1333333 47.3346223,36.3 42.6679557,36.3 C42.4346223,36.3 42.201289,36.3 41.901289,36.6333333 C44.3346223,37.7 46.701289,38.3333333 48.2346223,38.3333333 C48.4679557,38.3333333 48.6679557,38.3 48.8679557,38.2666667 L49.001289,38.2666667 C49.1679557,38.2 49.2679557,38.1666667 49.301289,37.8333333 C49.2346223,37.7333333 49.1679557,37.6 49.001289,37.4666667 L49.001289,37.4666667 L49.001289,37.4666667 Z M18.4346224,42.3333333 C17.7346224,42.7333333 17.1679557,43.1 16.8346224,43.3666667 C14.4679557,45.5333333 12.9679557,47.7333333 12.8012891,49 C14.3012891,48.5 16.2679557,46.3 18.4346224,42.3333333 L18.4346224,42.3333333 L18.4346224,42.3333333 Z M28.5012891,19.3 L28.6679557,19.1666667 C28.9012891,18.1 29.0012891,17.1666667 29.2012891,16.4333333 L29.3012891,15.9 C29.6346224,14 29.5679557,13.0333333 29.0012891,12.2333333 L28.5012891,12.0666667 C28.4346224,12.1666667 28.3346224,12.3333333 28.2679557,12.4666667 C27.7012891,13.8666667 27.7346224,16.3 28.5012891,19.3 L28.5012891,19.3 L28.5012891,19.3 Z" id="Shape" fill="#FFFFFF"></path>
            </g>
        </g>
    </g>
</svg>
